<svg xmlns="http://www.w3.org/2000/svg" viewBox="0 0 72 72">
  <g stroke="rgba(0,0,0,0.15)" stroke-width="0.5">
    <path d="M36,36 L72.00,36.00 A36,36 0 0,1 67.18,54.00 Z" fill="#e53935"/>
    <path d="M36,36 L67.18,54.00 A36,36 0 0,1 61.46,61.46 Z" fill="#ffffff"/>
    <path d="M36,36 L61.46,61.46 A36,36 0 0,1 45.32,70.77 Z" fill="#e53935"/>
    <path d="M36,36 L45.32,70.77 A36,36 0 0,1 36.00,72.00 Z" fill="#ffffff"/>
    <path d="M36,36 L36.00,72.00 A36,36 0 0,1 18.00,67.18 Z" fill="#e53935"/>
    <path d="M36,36 L18.00,67.18 A36,36 0 0,1 10.54,61.46 Z" fill="#ffffff"/>
    <path d="M36,36 L10.54,61.46 A36,36 0 0,1 1.23,45.32 Z" fill="#e53935"/>
    <path d="M36,36 L1.23,45.32 A36,36 0 0,1 0.00,36.00 Z" fill="#ffffff"/>
    <path d="M36,36 L0.00,36.00 A36,36 0 0,1 4.82,18.00 Z" fill="#e53935"/>
    <path d="M36,36 L4.82,18.00 A36,36 0 0,1 10.54,10.54 Z" fill="#ffffff"/>
    <path d="M36,36 L10.54,10.54 A36,36 0 0,1 26.68,1.23 Z" fill="#e53935"/>
    <path d="M36,36 L26.68,1.23 A36,36 0 0,1 36.00,0.00 Z" fill="#ffffff"/>
    <path d="M36,36 L36.00,0.00 A36,36 0 0,1 54.00,4.82 Z" fill="#e53935"/>
    <path d="M36,36 L54.00,4.82 A36,36 0 0,1 61.46,10.54 Z" fill="#ffffff"/>
    <path d="M36,36 L61.46,10.54 A36,36 0 0,1 70.77,26.68 Z" fill="#e53935"/>
    <path d="M36,36 L70.77,26.68 A36,36 0 0,1 72.00,36.00 Z" fill="#ffffff"/>
  </g>
  <circle cx="36" cy="36" r="35" fill="none" stroke="#ffffff" stroke-opacity="0.25" stroke-width="1"/>
  <circle cx="36" cy="36" r="29" fill="none" stroke="#ffffff" stroke-width="2" stroke-dasharray="4,3"/>
  <circle cx="36" cy="36" r="21" fill="#e53935" stroke="#ffffff" stroke-width="2" stroke-opacity="0.5"/>
</svg>